<?xml version="1.0" encoding="UTF-8" standalone="no"?>
<!-- Generator: Adobe Illustrator 21.0.0, SVG Export Plug-In . SVG Version: 6.00 Build 0)  -->

<svg
   version="1.2"
   id="Ebene_1"
   x="0px"
   y="0px"
   viewBox="0 0 99.999999 99.297995"
   overflow="scroll"
   xml:space="preserve"
   sodipodi:docname="Logo-Hochschule-RheinMain.svg"
   width="100"
   height="99.297997"
   inkscape:export-filename="/home/dthomann/vs-workspace/web-workspace/2024web20/src/main/resources/static/icons/Logo-Hochschule-RheinMain.png"
   inkscape:export-xdpi="192"
   inkscape:export-ydpi="192"
   inkscape:version="1.1.2 (0a00cf5339, 2022-02-04)"
   xmlns:inkscape="http://www.inkscape.org/namespaces/inkscape"
   xmlns:sodipodi="http://sodipodi.sourceforge.net/DTD/sodipodi-0.dtd"
   xmlns="http://www.w3.org/2000/svg"
   xmlns:svg="http://www.w3.org/2000/svg"><defs
   id="defs47" /><sodipodi:namedview
   id="namedview45"
   pagecolor="#3a3d3d"
   bordercolor="#666666"
   borderopacity="1.0"
   inkscape:pageshadow="2"
   inkscape:pageopacity="0"
   inkscape:pagecheckerboard="0"
   showgrid="false"
   inkscape:zoom="4.2234001"
   inkscape:cx="55.287208"
   inkscape:cy="43.685181"
   inkscape:window-width="1200"
   inkscape:window-height="729"
   inkscape:window-x="0"
   inkscape:window-y="0"
   inkscape:window-maximized="1"
   inkscape:current-layer="Ebene_1" />
<path
   fill="#e30613"
   d="m 99.43401,47.721206 -2.66408,-4.612958 c -0.62159,-1.03978 -1.75403,-1.726473 -3.04426,-1.745006 v 0 H 57.560031 l 5.838073,-10.107448 v 0 c 0.62634,-1.118667 0.603054,-2.432174 0.02756,-3.485261 l 0.0048,0.0043 -2.67311,-4.631491 c -0.306042,-0.594025 -0.770331,-1.10441 -1.387642,-1.461776 -0.61731,-0.357365 -1.294498,-0.505633 -1.963132,-0.478071 h -5.322936 c -1.211335,0.02804 -2.371346,0.654378 -3.025724,1.768293 L 43.215094,33.074958 25.143916,1.7722369 v 0.0095 C 24.49429,0.66782185 23.343308,0.04148285 22.150507,0.00441585 v 0 h -5.355726 c -0.663406,-0.03279 -1.34107,0.115953 -1.962657,0.482348 -0.612558,0.343583 -1.076848,0.86347405 -1.392394,1.43896505 l -2.664081,4.621986 c -0.575491,1.063067 -0.612558,2.385603 0.01853,3.5037951 L 28.87482,41.363242 H 6.2790777 c -1.294974,0.01853 -2.42267,0.705226 -3.049009,1.745006 L 0.5659866,47.721206 C 0.2086214,48.278163 0.0090292,48.937293 0,49.653924 c 0,0.705701 0.2133736,1.37386 0.575491,1.930818 l 2.6683587,4.633867 h 0.0048 c 0.631092,1.011742 1.744532,1.698435 3.030476,1.707939 v 0.009 H 28.87482 L 10.803642,89.252083 c -0.640596,1.11344 -0.603529,2.44072 -0.02329,3.48953 h -0.0048 l 2.664081,4.6315 c 0.315546,0.57549 0.779836,1.08635 1.392394,1.44799 0.621587,0.35261 1.299251,0.50136 1.962657,0.47332 h 5.355726 -0.0048 c 1.197553,-0.0371 2.348535,-0.66816 2.998161,-1.77257 v 0 l 18.071178,-31.297969 5.842826,10.107922 c 0.654378,1.104411 1.814389,1.735503 3.025724,1.763541 h 5.33244 c 0.65913,0.03707 1.332041,-0.120706 1.953628,-0.482824 0.617311,-0.352613 1.0816,-0.853969 1.392394,-1.457023 l 2.668358,-4.622462 h -0.0048 C 64.00101,70.475199 64.024296,69.15694 63.397959,68.0435 h 0.0048 L 57.56906,57.935577 h 36.15661 v -0.009 c 1.2812,-0.0095 2.39939,-0.696197 3.03048,-1.707939 l 2.66836,-4.633867 C 99.78663,51.027813 100,50.359654 100,49.653953 c 0,-0.70285 -0.21337,-1.375761 -0.56599,-1.932718 z"
   id="path2"
   style="stroke-width:4.7522;fill:#ffffff"
   inkscape:export-filename="/home/dthomann/vs-workspace/web-workspace/2024web20/src/main/resources/static/icons/path2.png"
   inkscape:export-xdpi="192"
   inkscape:export-ydpi="192" />

</svg>
